<svg version="1.1" id="Layer_1" xmlns="http://www.w3.org/2000/svg" xmlns:xlink="http://www.w3.org/1999/xlink" x="0px" y="0px"
	 width="100%" viewBox="0 0 1080 1080" enable-background="new 0 0 1080 1080" xml:space="preserve">
<path fill="#45718C" opacity="1.000000" stroke="none" 
	d="
M596.000000,1081.000000 
	C397.356201,1081.000000 199.212402,1081.000000 1.034301,1081.000000 
	C1.034301,721.064392 1.034301,361.128815 1.034301,1.096614 
	C360.894012,1.096614 720.788086,1.096614 1080.841064,1.096614 
	C1080.841064,360.999939 1080.841064,720.999939 1080.841064,1081.000000 
	C919.461670,1081.000000 757.980835,1081.000000 596.000000,1081.000000 
M488.500000,96.999001 
	C358.092560,96.999001 227.685104,96.999001 97.214188,96.999001 
	C97.214188,393.143219 97.214188,688.563354 97.214188,984.639526 
	C99.211967,984.639526 100.998604,984.639526 102.785248,984.639526 
	C394.756744,984.639771 686.728271,984.627869 978.699707,984.742981 
	C983.590088,984.744934 984.740662,983.310059 984.738831,978.570312 
	C984.628296,686.765503 984.639648,394.960632 984.639648,103.155777 
	C984.639648,101.209793 984.639648,99.263802 984.639648,96.999001 
	C819.107849,96.999001 654.303894,96.999001 488.500000,96.999001 
z"/>
<path fill="#F0F5F8" opacity="1.000000" stroke="none" 
	d="
M489.000000,96.999001 
	C654.303894,96.999001 819.107849,96.999001 984.639648,96.999001 
	C984.639648,99.263802 984.639648,101.209793 984.639648,103.155777 
	C984.639648,394.960632 984.628296,686.765503 984.738831,978.570312 
	C984.740662,983.310059 983.590088,984.744934 978.699707,984.742981 
	C686.728271,984.627869 394.756744,984.639771 102.785248,984.639526 
	C100.998604,984.639526 99.211967,984.639526 97.214188,984.639526 
	C97.214188,688.563354 97.214188,393.143219 97.214188,96.999001 
	C227.685104,96.999001 358.092560,96.999001 489.000000,96.999001 
M321.731232,450.499817 
	C321.731232,597.553284 321.731232,744.606750 321.731232,891.760010 
	C365.082153,891.760010 407.667511,891.760010 450.833923,891.760010 
	C450.833923,810.457275 450.833923,729.412354 450.833923,647.836853 
	C453.195221,647.836853 454.981964,647.836853 456.768738,647.836853 
	C482.430481,647.836853 508.098694,648.192932 533.751953,647.726990 
	C555.220215,647.337036 576.742676,646.791077 598.113953,644.887085 
	C637.817810,641.349854 675.635986,630.670227 710.711731,611.360840 
	C750.537048,589.436890 780.455688,558.174927 798.169250,516.035278 
	C818.620605,467.382324 821.706909,416.975983 811.378174,365.618164 
	C803.095947,324.436493 784.153442,289.000366 752.549133,260.799927 
	C727.481323,238.432007 698.070740,223.994507 666.313293,213.984863 
	C627.473694,201.742996 587.443054,198.075790 546.966614,198.041031 
	C473.813995,197.978226 400.661316,198.022385 327.508667,198.021866 
	C325.732086,198.021851 323.955536,198.021866 321.731201,198.021866 
	C321.731201,282.265503 321.731201,365.882629 321.731232,450.499817 
z"/>
<path fill="#45718C" opacity="1.000000" stroke="none" 
	d="
M321.731201,449.999786 
	C321.731201,365.882629 321.731201,282.265503 321.731201,198.021866 
	C323.955536,198.021866 325.732086,198.021851 327.508667,198.021866 
	C400.661316,198.022385 473.813995,197.978226 546.966614,198.041031 
	C587.443054,198.075790 627.473694,201.742996 666.313293,213.984863 
	C698.070740,223.994507 727.481323,238.432007 752.549133,260.799927 
	C784.153442,289.000366 803.095947,324.436493 811.378174,365.618164 
	C821.706909,416.975983 818.620605,467.382324 798.169250,516.035278 
	C780.455688,558.174927 750.537048,589.436890 710.711731,611.360840 
	C675.635986,630.670227 637.817810,641.349854 598.113953,644.887085 
	C576.742676,646.791077 555.220215,647.337036 533.751953,647.726990 
	C508.098694,648.192932 482.430481,647.836853 456.768738,647.836853 
	C454.981964,647.836853 453.195221,647.836853 450.833923,647.836853 
	C450.833923,729.412354 450.833923,810.457275 450.833923,891.760010 
	C407.667511,891.760010 365.082153,891.760010 321.731232,891.760010 
	C321.731232,744.606750 321.731232,597.553284 321.731201,449.999786 
M685.753845,447.077972 
	C688.303406,429.665955 688.798584,412.236053 685.981506,394.809845 
	C679.772949,356.403870 660.215210,327.913940 624.089172,311.808411 
	C602.105774,302.007843 578.822510,298.340332 555.008850,298.083527 
	C521.849121,297.725861 488.683075,297.948029 455.519745,297.940948 
	C454.079102,297.940643 452.638397,298.129486 451.255157,298.226196 
	C451.255157,381.310852 451.255157,464.012268 451.255157,546.983459 
	C453.322327,546.983459 454.972565,546.983459 456.622833,546.983459 
	C485.953339,546.983154 515.288513,547.291870 544.612244,546.845459 
	C558.228760,546.638184 571.947632,545.792236 585.400024,543.771057 
	C609.503723,540.149597 631.663513,531.358643 650.295288,515.085327 
	C670.690002,497.272156 681.032654,474.107971 685.753845,447.077972 
z"/>
<path fill="#F0F5F8" opacity="1.000000" stroke="none" 
	d="
M685.659790,447.502869 
	C681.032654,474.107971 670.690002,497.272156 650.295288,515.085327 
	C631.663513,531.358643 609.503723,540.149597 585.400024,543.771057 
	C571.947632,545.792236 558.228760,546.638184 544.612244,546.845459 
	C515.288513,547.291870 485.953339,546.983154 456.622833,546.983459 
	C454.972565,546.983459 453.322327,546.983459 451.255157,546.983459 
	C451.255157,464.012268 451.255157,381.310852 451.255157,298.226196 
	C452.638397,298.129486 454.079102,297.940643 455.519745,297.940948 
	C488.683075,297.948029 521.849121,297.725861 555.008850,298.083527 
	C578.822510,298.340332 602.105774,302.007843 624.089172,311.808411 
	C660.215210,327.913940 679.772949,356.403870 685.981506,394.809845 
	C688.798584,412.236053 688.303406,429.665955 685.659790,447.502869 
z"/>
</svg>